<svg width="32" height="32" viewBox="0 0 32 32" fill="none" xmlns="http://www.w3.org/2000/svg">
  <rect width="32" height="32" rx="8" fill="#003087"/>
  <path d="M12.4 8h4.8c2.4 0 4 1.6 4 4 0 2.8-2 4.8-4.8 4.8h-1.6l-.8 3.2h-1.6l2.4-8.8c0-.8.4-1.2 1.2-1.2h2.4c1.2 0 2 .8 2 2 0 1.6-1.2 2.8-2.8 2.8h-2.4l-.8 3.2z" fill="#0070BA"/>
  <path d="M16.8 14.4h2.4c1.6 0 2.8-1.2 2.8-2.8 0-1.2-.8-2-2-2h-2.4c-.8 0-1.2.4-1.2 1.2l-.8 3.2h-1.6l.8-3.2z" fill="#009CDE"/>
  <path d="M10.4 20l.8-3.2h1.6l-.8 3.2h-1.6z" fill="#003087"/>
  <path d="M14.4 20l.8-3.2h1.6l-.8 3.2h-1.6z" fill="#003087"/>
</svg>