<svg width="32" height="32" viewBox="0 0 32 32" fill="none" xmlns="http://www.w3.org/2000/svg">
  <rect width="32" height="32" rx="8" fill="#635BFF"/>
  <path d="M17.2 11.8c-.4-.2-1-.4-1.8-.4-1.2 0-2 .6-2 1.6 0 .8.6 1.2 1.6 1.6 1.2.4 1.4.6 1.4 1 0 .6-.6 1-1.6 1-.8 0-1.4-.2-1.8-.4l-.4 1.4c.4.2 1.2.4 2 .4 1.4 0 2.2-.6 2.2-1.8 0-.8-.6-1.2-1.6-1.6-1-.4-1.4-.6-1.4-1 0-.4.4-.8 1.2-.8.6 0 1.2.2 1.6.4l.6-1.4z" fill="white"/>
  <path d="M10 11.6v6.8h1.8v-5.4c.4-.6 1-.8 1.6-.8.2 0 .4 0 .6.2l.2-1.8c-.2 0-.4-.2-.6-.2-.8 0-1.4.4-1.8 1h-.2v-.8H10z" fill="white"/>
  <path d="M23.8 15c0-2.4-1.2-3.8-3-3.8-1.8 0-3.2 1.4-3.2 3.8 0 2.6 1.2 3.8 3.4 3.8.8 0 1.6-.2 2.2-.6l-.4-1.2c-.4.2-1 .4-1.6.4-1 0-1.8-.4-1.8-1.6h4.4v-.8zm-4.4-.8c0-1 .6-1.4 1.2-1.4.8 0 1.2.4 1.2 1.4h-2.4z" fill="white"/>
</svg>